<svg id="Layer_1" data-name="Layer 1" xmlns="http://www.w3.org/2000/svg" viewBox="0 0 690 240"><defs><style>.cls-1{fill:#0b0e35;}</style></defs><title>tray_logo</title><path class="cls-1" d="M274.52,118.22V101.15H250V81.46H230.05v19.69H209.33v17.07h20.72V144c0,12.18,2.34,19.46,7.38,24.5,6.85,6.86,16.09,8.54,23.89,8.54,9.34,0,12.35-1.53,12.35-1.53V158.67a75.27,75.27,0,0,1-11.6.76c-2.37,0-6.53-.53-9.22-3.22-2.34-2.34-2.89-6.22-2.89-9.48V118.22Z"/><path class="cls-1" d="M329.83,99.61c-8.36,0-15.77,2.93-20.33,7.49a20,20,0,0,0-1.41,1.56v-7.51H288.92v74.39h19.91V129A22.76,22.76,0,0,1,328.3,118a47.22,47.22,0,0,1,8.17.77V100.23A43.5,43.5,0,0,0,329.83,99.61Z"/><polygon class="cls-1" points="511.69 101.15 490.69 101.15 470.45 145.49 448.82 101.15 426.88 101.15 460.17 168.02 460.17 168.03 460.17 168.03 445.1 200 465.95 200 511.69 101.15"/><path class="cls-1" d="M399.39,101.15v5.9a36.17,36.17,0,0,0-21.76-7.44c-20.1,0-36.57,16.69-36.57,38.81s17,38.65,37.47,38.65c12.75,0,20.12-6.73,20.82-7.39v5.86h19.14V101.15Zm-18.76,57.52c-10.71,0-19.61-8.15-19.61-20.25,0-11.57,8.24-20.4,19.15-20.4a23.76,23.76,0,0,1,18.41,8.9v22.87A22.29,22.29,0,0,1,380.63,158.67Z"/><path class="cls-1" d="M510.75,150.92A13.08,13.08,0,1,1,497.38,164,13.1,13.1,0,0,1,510.75,150.92Z"/><path class="cls-1" d="M547.44,63.45a12.74,12.74,0,1,1-13,12.74A12.78,12.78,0,0,1,547.44,63.45Z"/><rect class="cls-1" x="537.49" y="101.15" width="19.91" height="74.39"/><path class="cls-1" d="M610.34,99.61c-21.86,0-39.58,16.87-39.58,38.73s17.72,38.74,39.58,38.74,39.59-16.87,39.59-38.74S632.2,99.61,610.34,99.61Zm0,59.06c-10.85,0-19.64-8.21-19.64-20.33,0-11.92,8.79-20.32,19.64-20.32S630,126.42,630,138.34C630,150.46,621.19,158.67,610.34,158.67Z"/><path class="cls-1" d="M139.63,40A39.82,39.82,0,0,0,99.81,79.82v7.47h19.91V79.82a19.91,19.91,0,1,1,19.91,19.92H79.9a39.82,39.82,0,1,0,0,79.64h7.46V159.47H79.9a19.91,19.91,0,0,1,0-39.82H99.81v59.73h19.91V119.65h19.91a39.83,39.83,0,1,0,0-79.65Z"/></svg>